<svg width="140" height="30" viewBox="0 0 140 30" fill="none" xmlns="http://www.w3.org/2000/svg">
<path d="M7.569 7.205H12.231V12.74C11.559 13.232 10.842 13.589 10.08 13.811C9.324 14.033 8.532 14.144 7.704 14.144C6.624 14.144 5.64 13.976 4.752 13.64C3.87 13.298 3.114 12.83 2.484 12.236C1.854 11.636 1.368 10.928 1.026 10.112C0.684 9.29 0.513 8.399 0.513 7.439C0.513 6.461 0.675 5.564 0.999 4.748C1.323 3.926 1.785 3.218 2.385 2.624C2.991 2.03 3.72 1.568 4.572 1.238C5.43 0.907999 6.387 0.743 7.443 0.743C7.989 0.743 8.502 0.788 8.982 0.877999C9.462 0.967999 9.903 1.091 10.305 1.247C10.713 1.403 11.085 1.589 11.421 1.805C11.757 2.021 12.057 2.255 12.321 2.507L11.439 3.848C11.301 4.058 11.121 4.187 10.899 4.235C10.683 4.283 10.449 4.229 10.197 4.073C9.957 3.929 9.729 3.806 9.513 3.704C9.303 3.596 9.087 3.509 8.865 3.443C8.643 3.377 8.409 3.329 8.163 3.299C7.917 3.269 7.641 3.254 7.335 3.254C6.765 3.254 6.252 3.356 5.796 3.56C5.34 3.758 4.95 4.04 4.626 4.406C4.308 4.772 4.062 5.213 3.888 5.729C3.714 6.239 3.627 6.809 3.627 7.439C3.627 8.135 3.723 8.753 3.915 9.293C4.107 9.833 4.377 10.289 4.725 10.661C5.079 11.033 5.499 11.318 5.985 11.516C6.477 11.708 7.02 11.804 7.614 11.804C7.98 11.804 8.31 11.768 8.604 11.696C8.904 11.624 9.195 11.528 9.477 11.408V9.419H8.181C7.989 9.419 7.839 9.368 7.731 9.266C7.623 9.164 7.569 9.035 7.569 8.879V7.205ZM27.1468 7.439C27.1468 8.387 26.9818 9.269 26.6518 10.085C26.3278 10.901 25.8688 11.612 25.2748 12.218C24.6808 12.818 23.9638 13.289 23.1238 13.631C22.2898 13.973 21.3628 14.144 20.3428 14.144C19.3228 14.144 18.3928 13.973 17.5528 13.631C16.7128 13.289 15.9928 12.818 15.3928 12.218C14.7988 11.612 14.3368 10.901 14.0068 10.085C13.6828 9.269 13.5208 8.387 13.5208 7.439C13.5208 6.491 13.6828 5.609 14.0068 4.793C14.3368 3.977 14.7988 3.269 15.3928 2.669C15.9928 2.069 16.7128 1.598 17.5528 1.256C18.3928 0.914 19.3228 0.743 20.3428 0.743C21.3628 0.743 22.2898 0.916999 23.1238 1.265C23.9638 1.607 24.6808 2.078 25.2748 2.678C25.8688 3.278 26.3278 3.986 26.6518 4.802C26.9818 5.618 27.1468 6.497 27.1468 7.439ZM24.0328 7.439C24.0328 6.791 23.9488 6.209 23.7808 5.693C23.6128 5.171 23.3698 4.73 23.0518 4.37C22.7398 4.01 22.3558 3.734 21.8998 3.542C21.4438 3.35 20.9248 3.254 20.3428 3.254C19.7548 3.254 19.2298 3.35 18.7678 3.542C18.3118 3.734 17.9248 4.01 17.6068 4.37C17.2948 4.73 17.0548 5.171 16.8868 5.693C16.7188 6.209 16.6348 6.791 16.6348 7.439C16.6348 8.093 16.7188 8.681 16.8868 9.203C17.0548 9.719 17.2948 10.157 17.6068 10.517C17.9248 10.877 18.3118 11.153 18.7678 11.345C19.2298 11.531 19.7548 11.624 20.3428 11.624C20.9248 11.624 21.4438 11.531 21.8998 11.345C22.3558 11.153 22.7398 10.877 23.0518 10.517C23.3698 10.157 23.6128 9.719 23.7808 9.203C23.9488 8.681 24.0328 8.093 24.0328 7.439ZM40.835 7.439C40.835 8.387 40.67 9.263 40.34 10.067C40.016 10.865 39.557 11.558 38.963 12.146C38.369 12.728 37.652 13.184 36.812 13.514C35.978 13.838 35.051 14 34.031 14H28.937V0.887H34.031C35.051 0.887 35.978 1.052 36.812 1.382C37.652 1.712 38.369 2.168 38.963 2.75C39.557 3.332 40.016 4.025 40.34 4.829C40.67 5.627 40.835 6.497 40.835 7.439ZM37.721 7.439C37.721 6.791 37.637 6.206 37.469 5.684C37.301 5.162 37.058 4.721 36.74 4.361C36.428 3.995 36.044 3.716 35.588 3.524C35.132 3.326 34.613 3.227 34.031 3.227H31.997V11.66H34.031C34.613 11.66 35.132 11.564 35.588 11.372C36.044 11.174 36.428 10.895 36.74 10.535C37.058 10.169 37.301 9.725 37.469 9.203C37.637 8.681 37.721 8.093 37.721 7.439ZM45.6903 14H42.6303V0.887H45.6903V14ZM59.6682 0.887V14H58.0842C57.8502 14 57.6522 13.964 57.4902 13.892C57.3342 13.814 57.1782 13.682 57.0222 13.496L50.8392 5.675C50.8632 5.909 50.8782 6.137 50.8842 6.359C50.8962 6.575 50.9022 6.779 50.9022 6.971V14H48.2202V0.887H49.8222C49.9542 0.887 50.0652 0.893 50.1552 0.905C50.2452 0.916999 50.3262 0.941 50.3982 0.977C50.4702 1.007 50.5392 1.052 50.6052 1.112C50.6712 1.172 50.7462 1.253 50.8302 1.355L57.0672 9.23C57.0372 8.978 57.0162 8.735 57.0042 8.501C56.9922 8.261 56.9862 8.036 56.9862 7.826V0.887H59.6682Z" fill="#CE3434"/>
<path d="M4.329 18.227V21.287H8.451V23.537H4.329V26.66H9.711V29H1.269V15.887H9.711V18.227H4.329ZM26.3294 15.887V29H23.6474V21.458C23.6474 21.284 23.6504 21.095 23.6564 20.891C23.6684 20.687 23.6864 20.48 23.7104 20.27L20.2274 27.011C20.1194 27.221 19.9724 27.38 19.7864 27.488C19.6064 27.596 19.3994 27.65 19.1654 27.65H18.7514C18.5174 27.65 18.3074 27.596 18.1214 27.488C17.9414 27.38 17.7974 27.221 17.6894 27.011L14.2064 20.252C14.2244 20.468 14.2394 20.681 14.2514 20.891C14.2634 21.095 14.2694 21.284 14.2694 21.458V29H11.5874V15.887H13.9094C14.0414 15.887 14.1554 15.89 14.2514 15.896C14.3534 15.902 14.4434 15.92 14.5214 15.95C14.5994 15.98 14.6684 16.028 14.7284 16.094C14.7944 16.154 14.8574 16.241 14.9174 16.355L18.2924 23.006C18.4124 23.234 18.5264 23.471 18.6344 23.717C18.7484 23.963 18.8564 24.215 18.9584 24.473C19.0604 24.209 19.1654 23.951 19.2734 23.699C19.3874 23.447 19.5074 23.207 19.6334 22.979L22.9994 16.355C23.0594 16.241 23.1194 16.154 23.1794 16.094C23.2454 16.028 23.3174 15.98 23.3954 15.95C23.4734 15.92 23.5604 15.902 23.6564 15.896C23.7584 15.89 23.8754 15.887 24.0074 15.887H26.3294ZM33.4927 22.322C34.2847 22.322 34.8547 22.133 35.2027 21.755C35.5507 21.377 35.7247 20.849 35.7247 20.171C35.7247 19.871 35.6797 19.598 35.5897 19.352C35.4997 19.106 35.3617 18.896 35.1757 18.722C34.9957 18.542 34.7647 18.404 34.4827 18.308C34.2067 18.212 33.8767 18.164 33.4927 18.164H31.9087V22.322H33.4927ZM33.4927 15.887C34.4167 15.887 35.2087 15.998 35.8687 16.22C36.5347 16.436 37.0807 16.736 37.5067 17.12C37.9387 17.504 38.2567 17.957 38.4607 18.479C38.6647 19.001 38.7667 19.565 38.7667 20.171C38.7667 20.825 38.6617 21.425 38.4517 21.971C38.2417 22.517 37.9207 22.985 37.4887 23.375C37.0567 23.765 36.5077 24.071 35.8417 24.293C35.1817 24.509 34.3987 24.617 33.4927 24.617H31.9087V29H28.8667V15.887H33.4927ZM44.576 22.052C44.99 22.052 45.341 22.001 45.629 21.899C45.923 21.791 46.163 21.644 46.349 21.458C46.535 21.272 46.67 21.056 46.754 20.81C46.838 20.558 46.88 20.288 46.88 20C46.88 19.424 46.691 18.974 46.313 18.65C45.941 18.326 45.362 18.164 44.576 18.164H43.352V22.052H44.576ZM51.038 29H48.284C47.774 29 47.408 28.808 47.186 28.424L45.008 24.617C44.906 24.455 44.792 24.338 44.666 24.266C44.54 24.188 44.36 24.149 44.126 24.149H43.352V29H40.31V15.887H44.576C45.524 15.887 46.331 15.986 46.997 16.184C47.669 16.376 48.215 16.646 48.635 16.994C49.061 17.342 49.37 17.753 49.562 18.227C49.754 18.701 49.85 19.217 49.85 19.775C49.85 20.201 49.793 20.603 49.679 20.981C49.565 21.359 49.397 21.71 49.175 22.034C48.953 22.352 48.677 22.637 48.347 22.889C48.023 23.141 47.648 23.348 47.222 23.51C47.42 23.612 47.606 23.741 47.78 23.897C47.954 24.047 48.11 24.227 48.248 24.437L51.038 29ZM55.2001 18.227V21.287H59.3221V23.537H55.2001V26.66H60.5821V29H52.1401V15.887H60.5821V18.227H55.2001ZM73.9065 15.887V29H72.3225C72.0885 29 71.8905 28.964 71.7285 28.892C71.5725 28.814 71.4165 28.682 71.2605 28.496L65.0775 20.675C65.1015 20.909 65.1165 21.137 65.1225 21.359C65.1345 21.575 65.1405 21.779 65.1405 21.971V29H62.4585V15.887H64.0605C64.1925 15.887 64.3035 15.893 64.3935 15.905C64.4835 15.917 64.5645 15.941 64.6365 15.977C64.7085 16.007 64.7775 16.052 64.8435 16.112C64.9095 16.172 64.9845 16.253 65.0685 16.355L71.3055 24.23C71.2755 23.978 71.2545 23.735 71.2425 23.501C71.2305 23.261 71.2245 23.036 71.2245 22.826V15.887H73.9065ZM88.3486 22.439C88.3486 23.387 88.1836 24.263 87.8536 25.067C87.5296 25.865 87.0706 26.558 86.4766 27.146C85.8826 27.728 85.1656 28.184 84.3256 28.514C83.4916 28.838 82.5646 29 81.5446 29H76.4506V15.887H81.5446C82.5646 15.887 83.4916 16.052 84.3256 16.382C85.1656 16.712 85.8826 17.168 86.4766 17.75C87.0706 18.332 87.5296 19.025 87.8536 19.829C88.1836 20.627 88.3486 21.497 88.3486 22.439ZM85.2346 22.439C85.2346 21.791 85.1506 21.206 84.9826 20.684C84.8146 20.162 84.5716 19.721 84.2536 19.361C83.9416 18.995 83.5576 18.716 83.1016 18.524C82.6456 18.326 82.1266 18.227 81.5446 18.227H79.5106V26.66H81.5446C82.1266 26.66 82.6456 26.564 83.1016 26.372C83.5576 26.174 83.9416 25.895 84.2536 25.535C84.5716 25.169 84.8146 24.725 84.9826 24.203C85.1506 23.681 85.2346 23.093 85.2346 22.439ZM93.204 18.227V21.287H97.326V23.537H93.204V26.66H98.586V29H90.144V15.887H98.586V18.227H93.204ZM112.36 22.439C112.36 23.387 112.195 24.263 111.865 25.067C111.541 25.865 111.082 26.558 110.488 27.146C109.894 27.728 109.177 28.184 108.337 28.514C107.503 28.838 106.576 29 105.556 29H100.462V15.887H105.556C106.576 15.887 107.503 16.052 108.337 16.382C109.177 16.712 109.894 17.168 110.488 17.75C111.082 18.332 111.541 19.025 111.865 19.829C112.195 20.627 112.36 21.497 112.36 22.439ZM109.246 22.439C109.246 21.791 109.162 21.206 108.994 20.684C108.826 20.162 108.583 19.721 108.265 19.361C107.953 18.995 107.569 18.716 107.113 18.524C106.657 18.326 106.138 18.227 105.556 18.227H103.522V26.66H105.556C106.138 26.66 106.657 26.564 107.113 26.372C107.569 26.174 107.953 25.895 108.265 25.535C108.583 25.169 108.826 24.725 108.994 24.203C109.162 23.681 109.246 23.093 109.246 22.439ZM127.026 22.439C127.026 23.387 126.861 24.269 126.531 25.085C126.207 25.901 125.748 26.612 125.154 27.218C124.56 27.818 123.843 28.289 123.003 28.631C122.169 28.973 121.242 29.144 120.222 29.144C119.202 29.144 118.272 28.973 117.432 28.631C116.592 28.289 115.872 27.818 115.272 27.218C114.678 26.612 114.216 25.901 113.886 25.085C113.562 24.269 113.4 23.387 113.4 22.439C113.4 21.491 113.562 20.609 113.886 19.793C114.216 18.977 114.678 18.269 115.272 17.669C115.872 17.069 116.592 16.598 117.432 16.256C118.272 15.914 119.202 15.743 120.222 15.743C121.242 15.743 122.169 15.917 123.003 16.265C123.843 16.607 124.56 17.078 125.154 17.678C125.748 18.278 126.207 18.986 126.531 19.802C126.861 20.618 127.026 21.497 127.026 22.439ZM123.912 22.439C123.912 21.791 123.828 21.209 123.66 20.693C123.492 20.171 123.249 19.73 122.931 19.37C122.619 19.01 122.235 18.734 121.779 18.542C121.323 18.35 120.804 18.254 120.222 18.254C119.634 18.254 119.109 18.35 118.647 18.542C118.191 18.734 117.804 19.01 117.486 19.37C117.174 19.73 116.934 20.171 116.766 20.693C116.598 21.209 116.514 21.791 116.514 22.439C116.514 23.093 116.598 23.681 116.766 24.203C116.934 24.719 117.174 25.157 117.486 25.517C117.804 25.877 118.191 26.153 118.647 26.345C119.109 26.531 119.634 26.624 120.222 26.624C120.804 26.624 121.323 26.531 121.779 26.345C122.235 26.153 122.619 25.877 122.931 25.517C123.249 25.157 123.492 24.719 123.66 24.203C123.828 23.681 123.912 23.093 123.912 22.439ZM133.082 22.052C133.496 22.052 133.847 22.001 134.135 21.899C134.429 21.791 134.669 21.644 134.855 21.458C135.041 21.272 135.176 21.056 135.26 20.81C135.344 20.558 135.386 20.288 135.386 20C135.386 19.424 135.197 18.974 134.819 18.65C134.447 18.326 133.868 18.164 133.082 18.164H131.858V22.052H133.082ZM139.544 29H136.79C136.28 29 135.914 28.808 135.692 28.424L133.514 24.617C133.412 24.455 133.298 24.338 133.172 24.266C133.046 24.188 132.866 24.149 132.632 24.149H131.858V29H128.816V15.887H133.082C134.03 15.887 134.837 15.986 135.503 16.184C136.175 16.376 136.721 16.646 137.141 16.994C137.567 17.342 137.876 17.753 138.068 18.227C138.26 18.701 138.356 19.217 138.356 19.775C138.356 20.201 138.299 20.603 138.185 20.981C138.071 21.359 137.903 21.71 137.681 22.034C137.459 22.352 137.183 22.637 136.853 22.889C136.529 23.141 136.154 23.348 135.728 23.51C135.926 23.612 136.112 23.741 136.286 23.897C136.46 24.047 136.616 24.227 136.754 24.437L139.544 29Z" fill="white"/>
</svg>
